#tb 0: 1/3
#media_type 0: video
#codec_id 0: rawvideo
#dimensions 0: 320x240
#sar 0: 1/1
0,          0,          0,        1,   115200, 0x3744b3ed
0,          1,          1,        1,   115200, 0x201b9db1
0,          2,          2,        1,   115200, 0x309b9c06
0,          3,          3,        1,   115200, 0xb73857e2
0,          4,          4,        1,   115200, 0x02b6ab21
0,          5,          5,        1,   115200, 0x296dd4a5
0,          6,          6,        1,   115200, 0xc95a675e
0,          7,          7,        1,   115200, 0xf040bf35
0,          8,          8,        1,   115200, 0xa76dcd9d
0,          9,          9,        1,   115200, 0x0caf7172
0,         10,         10,        1,   115200, 0xc8ce7fb1
